{"title":"The.Driftless.Area.2016.WEBRip.480p.x264.AAC-VYTO [P2PDL]","uid":14438957,"size":378727999,"categoryP":"video","categoryS":"movies","magnet":"?xt=urn:btih:d79ba19721abe126512d56221d80887db94ac445&amp;dn=The.Driftless.Area.2016.WEBRip.480p.x264.AAC-VYTO+%5BP2PDL%5D&amp;tr=udp%3A%2F%2Ftracker.leechers-paradise.org%3A6969&amp;tr=udp%3A%2F%2Fzer0day.ch%3A1337&amp;tr=udp%3A%2F%2Fopen.demonii.com%3A1337&amp;tr=udp%3A%2F%2Ftracker.coppersurfer.tk%3A6969&amp;tr=udp%3A%2F%2Fexodus.desync.com%3A6969","seeders":1,"leechers":1,"uploader":"VYTOP2PDL","files":6,"time":1461663201,"description":"____    ____ ____    ____ .___________.  ______   \r\n     /   /      /   / |           | /  __    \r\n    /   /      /   /  `---|  |----`|  |  |  | \r\n        /     _    _/       |  |     |  |  |  | \r\n       /        |  |         |  |     |  `--'  | \r\n    __/         |__|         |__|      ______/  \r\n                                                  \r\nPresenting Small Encodes with quality for years!\r\n                                                                                                   \r\n                                                                                                   \r\n\r\n\r\nThe.Driftless.Area.2016.WEBRip.480p.x264.AAC-VYTO\r\n\r\n\r\nGenre: Comedy, Drama, Mystery   \nhttp://www.imdb.com/title/tt3687304/\r\n\r\n\r\nFormat                                   : MPEG-4\r\nFile size                                : 352 MiB\r\nDuration                                 : 1h 35mn\r\nOverall bit rate                         : 514 Kbps\r\n\r\nVideo\r\nFormat                                   : AVC\r\nDuration                                 : 1h 35mn\r\nBit rate                                 : 471 Kbps\r\nWidth                                    : 720 pixels\r\nHeight                                   : 304 pixels\r\nDisplay aspect ratio                     : 2.35:1\r\nFrame rate mode                          : Constant\r\nFrame rate                               : 23.976 (24000/1001) fps\r\nBit depth                                : 8 bits\r\nStream size                              : 322 MiB (92%)\r\nWriting library                          : x264\r\nAudio\r\nFormat                                   : AAC\r\nBit rate mode                            : Variable\r\nBit rate                                 : 39.9 Kbps\r\nChannel(s)                               : 2 channels\r\nChannel positions                        : Front: L R\r\nSampling rate                            : 48.0 KHz\r\nStream size                              : 27.3 MiB (8%)\r\nLanguage                                 : English\r\n\r\nSubtitle                                 : Yes (English)\r\n\r\nScreen Shots : (Click links to view)\r\n \nhttps://ititli.com/Xmt \nhttps://ititli.com/XmL \nhttps://ititli.com/Xmd \nhttps://ititli.com/Xm0 \nhttps://ititli.com/XmA \nhttps://ititli.com/Xml \nhttps://ititli.com/Xmm \nhttps://ititli.com/Xmx \nhttps://ititli.com/Xm7\r\n\r\n----------------------------------------------------------------------------------------------------\r\n\r\n\r\nEncoder Notes: Looking For Early Access To Anything You Can Provide WEBDL, DVDScr, DVDR, BluRay,\r\nDirect Audio, Music Releases and Seedboxes. If You Got anything to offer please contact us.\r\n\r\nSupport us by donating BC - 1FgwdzPsd1y25Gea8wP1qni35uGCtmkRCD\r\n\r\nFind us and join us!","torrent":{"xt":"urn:btih:d79ba19721abe126512d56221d80887db94ac445","amp;dn":"The.Driftless.Area.2016.WEBRip.480p.x264.AAC-VYTO+%5BP2PDL%5D","amp;tr":["udp%3A%2F%2Ftracker.leechers-paradise.org%3A6969","udp%3A%2F%2Fzer0day.ch%3A1337","udp%3A%2F%2Fopen.demonii.com%3A1337","udp%3A%2F%2Ftracker.coppersurfer.tk%3A6969","udp%3A%2F%2Fexodus.desync.com%3A6969"],"infoHash":"d79ba19721abe126512d56221d80887db94ac445","infoHashBuffer":{"type":"Buffer","data":[215,155,161,151,33,171,225,38,81,45,86,34,29,128,136,125,185,74,196,69]},"announce":[],"urlList":[]}}